<svg width="188" height="41" viewBox="0 0 188 41" fill="none" xmlns="http://www.w3.org/2000/svg">
<path d="M22.232 21.812V23.164C26.548 23.32 27.016 23.788 27.016 28.052V36.944C26.288 37.62 25.872 37.88 24.884 38.244C23.168 38.972 21.348 39.336 19.788 39.336C17.188 39.336 14.848 38.4 13.184 36.736C10.168 33.616 8.348 27.428 8.348 20.2C8.348 15.208 9.18 10.944 10.792 7.564C12.612 3.768 15.784 1.74 19.84 1.74C23.272 1.74 26.288 3.3 28.316 6.16C29.668 8.032 30.396 10.112 30.916 13.232L32.84 13.18V1.116C31.54 1.636 30.76 1.792 29.772 1.792C28.992 1.792 28.212 1.688 27.432 1.48C23.324 0.491998 22.076 0.283997 19.424 0.283997C8.14 0.283997 0.86 8.448 0.86 21.188C0.86 33.512 7.62 40.792 18.956 40.792C21.712 40.792 23.844 40.428 27.536 39.388C30.084 38.66 31.228 38.452 33.672 38.244C33.568 36.58 33.516 35.748 33.516 33.044V28.624C33.516 25.556 33.672 24.568 34.296 23.996C34.868 23.424 35.7 23.216 37.572 23.164V21.812H22.232ZM51.8801 21.604H53.9601C57.2881 21.604 58.9001 22.696 60.5641 25.92C62.0721 28.832 63.5281 32.68 65.9721 39.96H76.2161V38.712C73.7721 38.504 72.8881 37.516 70.8601 32.784C68.3641 26.96 67.4801 25.348 65.7641 23.892C63.8921 22.28 62.0201 21.448 59.3161 21.136V20.72C67.5321 20.096 71.4321 16.82 71.4321 10.528C71.4321 6.68 69.9241 4.184 66.6481 2.624C64.5681 1.636 60.9281 1.064 56.5601 1.064H40.6481V2.416C44.7041 2.624 45.1201 3.092 45.1201 7.824V33.252C45.1201 37.984 44.7041 38.452 40.4401 38.608V39.96H56.5601V38.608C52.2961 38.452 51.8801 37.984 51.8801 33.252V21.604ZM51.8801 20.096V2.572H55.0521C61.2401 2.572 64.2041 5.328 64.2041 11.152C64.2041 16.976 60.8761 20.096 54.6881 20.096H51.8801ZM88.1026 26.804H101.779L103.755 32.524C104.223 33.824 104.483 35.124 104.535 35.956C104.535 36.008 104.535 36.06 104.535 36.112C104.535 37.828 103.339 38.504 100.063 38.608V39.96H117.015V38.608C115.299 38.4 114.831 38.296 114.259 38.036C113.063 37.412 112.075 35.748 110.879 32.524L99.5426 0.647999L95.6946 1.064L84.6186 30.392C82.2786 36.528 80.4066 38.556 77.0266 38.608V39.96H90.3906V38.608C86.9586 38.504 85.5026 37.568 85.5026 35.54C85.5026 34.344 85.8666 32.732 86.6466 30.756L88.1026 26.804ZM101.103 24.776H88.8306L95.1746 7.876L101.103 24.776ZM152.276 14.116V1.428C150.612 2 150.248 2.104 149.468 2.104C148.688 2.104 148.012 2 147.284 1.792C142.5 0.491998 141.356 0.283997 138.652 0.283997C127.524 0.283997 120.348 8.396 120.348 20.928C120.348 27.22 122.22 32.472 125.704 35.904C128.876 39.024 133.504 40.792 138.496 40.792C146.244 40.792 151.288 37.204 154.096 29.82L152.588 28.988C151.808 30.912 151.184 32.056 150.3 33.252C147.752 36.684 144.06 38.608 140.16 38.608C132.516 38.608 127.836 31.484 127.836 19.94C127.836 14.272 128.824 9.748 130.852 6.368C132.568 3.508 135.584 1.792 138.912 1.792C142.292 1.792 145.516 3.56 147.648 6.628C149.104 8.708 149.832 10.736 150.404 14.116H152.276ZM157.591 39.96H186.763L187.855 27.844L186.139 27.636C184.631 35.748 181.719 38.452 174.699 38.452H168.979V20.408H172.723C178.339 20.408 179.639 21.448 180.263 26.492H181.927V12.92H180.263C179.691 17.808 178.339 18.9 172.723 18.9H168.979V2.572H174.075C181.407 2.572 184.163 4.964 185.255 12.192L187.075 12.14L186.139 1.064H157.591V2.416C161.751 2.468 162.271 3.04 162.271 7.824V33.2C162.271 37.984 161.803 38.504 157.591 38.608V39.96Z" fill="black"/>
</svg>
